<svg viewBox="0 0 2000 1400" xmlns="http://www.w3.org/2000/svg"><path fill="transparent" d="M0 0h2000v1400H0z"/><rect x="1081" y="1042" width="9" height="20" fill="#00B8A9" rx="0" transform="matrix(-.86843 .24733 -.56017 -.99197 2774.975 2057.812)"/><rect x="1557" y="802" width="11" height="28" fill="#FFDE7D" rx="0" transform="matrix(-.5148 .56659 -.97224 -.87247 3475.372 1090.68)"/><rect x="1888" y="1244" width="8" height="16" fill="#F8F3D4" rx="0" transform="matrix(1.0158 .22581 -.02855 .9781 317.384 -565.333)"/><rect x="1620" y="815" width="10" height="13" fill="#F6416C" rx="0" transform="matrix(.89652 .42365 -.43785 .90852 446.045 -499.65)"/><rect x="986" y="1146" width="8" height="23" fill="#F8F3D4" rx="0" transform="matrix(-.05185 .99127 -1.01888 .19268 2113.654 -186.029)"/><rect x="1625" y="335" width="7" height="7" fill="#00B8A9" rx="0" transform="matrix(-.32667 .87939 -.94855 -.50771 2492.49 -634.57)"/><rect x="1847" y="20" width="8" height="20" fill="#FFDE7D" rx="0" transform="matrix(.93672 .1746 -.4148 .99023 152.696 -517.448)"/><rect x="1078" y="239" width="8" height="11" fill="#FFDE7D" rx="0" transform="matrix(-.99078 -.07014 .08826 -1.00306 2088.459 679.363)"/><rect x="200" y="530" width="7" height="9" fill="#F6416C" rx="0" transform="matrix(-.93122 .0367 -.58462 -1.05082 844.148 1154.818)"/><rect x="1435" y="766" width="7" height="8" fill="#F6416C" rx="0" transform="matrix(-.44567 .87454 -.88616 -.50491 2872.31 -301.405)"/><rect x="1588" y="198" width="9" height="11" fill="#00B8A9" rx="0" transform="matrix(.994 .08749 -.06854 1 30.244 -278.651)"/><rect x="640" y="1188" width="13" height="33" fill="#F6416C" rx="0" transform="matrix(.9111 .6438 -.38714 .82402 474.824 -6.584)"/><rect x="678" y="1211" width="13" height="29" fill="#FFDE7D" rx="0" transform="matrix(-.486 .83867 -.87676 -.54464 2177.322 1318.885)"/><rect x="730" y="496" width="12" height="12" fill="#00B8A9" rx="0" transform="matrix(-.40095 .78316 -.94044 -.65715 1560.81 411.925)"/><rect x="527" y="532" width="7" height="15" fill="#F6416C" rx="0" transform="matrix(.88806 .7283 -.51546 .70332 414.033 -142.283)"/><rect x="44" y="865" width="10" height="15" fill="#00B8A9" rx="0" transform="matrix(-1.00042 -.14553 -.24703 -1.03552 391.2 1798.099)"/><rect x="1280" y="943" width="8" height="17" fill="#00B8A9" rx="0" transform="matrix(.07006 1.01563 -1.00338 -.27214 2172.644 323.562)"/><rect x="782" y="1067" width="9" height="22" fill="#FFDE7D" rx="0" transform="matrix(-1.03115 .24374 .03296 -.97758 1406.52 1843.563)"/><rect x="757" y="646" width="8" height="16" fill="#F8F3D4" rx="0" transform="matrix(-.5628 .8851 -.83056 -.47062 1607.781 341.435)"/><rect x="1935" y="559" width="12" height="13" fill="#FFDE7D" rx="0" transform="matrix(.86143 .79393 -.58654 .62028 756.896 -1087.962)"/><rect x="123" y="1140" width="11" height="22" fill="#FFDE7D" rx="0" transform="matrix(-.33349 1.00413 -.9784 -.05262 1096.932 1069.034)"/><rect x="1904" y="677" width="13" height="18" fill="#FFDE7D" rx="0" transform="matrix(-1.01407 .15703 .03445 -.99146 3769.712 898.986)"/><rect x="206" y="1125" width="8" height="20" fill="#F6416C" rx="0" transform="matrix(.9654 .54539 -.34697 .83982 723.377 56.266)"/><rect x="1382" y="1098" width="12" height="28" fill="#00B8A9" rx="0" transform="matrix(.38186 .8336 -.94204 .56227 1803.995 -816.175)"/><rect x="1557" y="1163" width="10" height="13" fill="#F6416C" rx="0" transform="matrix(-.24123 .98538 -.96795 -.19154 3106.883 -282.312)"/><rect x="196" y="374" width="9" height="14" fill="#F6416C" rx="0" transform="matrix(1.04582 .77456 -.38193 .67332 266.964 15.456)"/><rect x="1633" y="81" width="13" height="32" fill="#00B8A9" rx="0" transform="matrix(-.67252 .66954 -.74666 -.7436 2825.31 -871.327)"/><rect x="34" y="809" width="10" height="16" fill="#00B8A9" rx="0" transform="matrix(1.00247 -.01748 -.21144 1.00122 28.953 -2.359)"/><rect x="1718" y="597" width="11" height="29" fill="#F6416C" rx="0" transform="matrix(-.9905 -.10874 -.22787 -1.0346 3627.928 1925.779)"/><rect x="1190" y="40" width="13" height="26" fill="#00B8A9" rx="0" transform="matrix(-.98857 .08716 -.17431 -.9962 2393.199 1.516)"/><rect x="142" y="394" width="11" height="16" fill="#F6416C" rx="0" transform="matrix(.34532 1.03967 -.94979 .0363 493.895 276.35)"/><rect x="260" y="578" width="8" height="10" fill="#F8F3D4" rx="0" transform="matrix(.98041 -.08824 .1263 1.00861 36.736 -23.539)"/><rect x="196" y="675" width="12" height="31" fill="#00B8A9" rx="0" transform="matrix(1.00248 .37604 -.1781 .93073 209.426 -10.453)"/><rect x="1171" y="311" width="10" height="10" fill="#FFDE7D" rx="0" transform="matrix(.8953 .5922 -.45635 .8151 283.41 -493.601)"/><rect x="456" y="299" width="11" height="25" fill="#FFDE7D" rx="0" transform="matrix(-.6435 .90003 -.79722 -.43897 956.151 8.691)"/><rect x="501" y="836" width="7" height="8" fill="#FFDE7D" rx="0" transform="matrix(.67445 .83018 -.74965 .55996 869.748 -22.75)"/><rect x="1392" y="694" width="8" height="8" fill="#FFDE7D" rx="0" transform="matrix(-.79223 .53652 -.59602 -.85862 2853.7 769.432)"/><rect x="21" y="329" width="13" height="23" fill="#F8F3D4" rx="0" transform="matrix(.14096 1.00586 -1.03998 -.32682 420.706 433.591)"/><rect x="1512" y="790" width="8" height="15" fill="#F8F3D4" rx="0" transform="matrix(-.9937 .45461 -.24941 -.89223 3094.753 740.409)"/><rect x="224" y="1373" width="10" height="12" fill="#00B8A9" rx="0" transform="matrix(.95597 .44268 -.29894 .90763 808.507 -6.175)"/><rect x="1137" y="1361" width="12" height="15" fill="#F8F3D4" rx="0" transform="matrix(.38965 .92558 -.91501 .39288 2081.027 -347.228)"/><rect x="1110" y="382" width="11" height="31" fill="#00B8A9" rx="0" transform="matrix(.62243 .96573 -.83325 .31378 846.51 -607.806)"/><rect x="677" y="1136" width="13" height="22" fill="#F6416C" rx="0" transform="matrix(.90751 .82308 -.53108 .62024 881.029 43.423)"/><rect x="525" y="1154" width="8" height="15" fill="#00B8A9" rx="0" transform="matrix(-.9899 -.07378 -.60162 -1.05504 2188.02 2608.11)"/><rect x="794" y="826" width="8" height="12" fill="#F6416C" rx="0" transform="matrix(-.87224 .41744 -.4365 -.93758 1678.023 1463.182)"/><rect x="1558" y="279" width="9" height="18" fill="#F6416C" rx="0" transform="matrix(-.27676 .89416 -.96496 -.49564 2283.676 -634.26)"/><rect x="509" y="439" width="11" height="22" fill="#F6416C" rx="0" transform="matrix(.76689 .99451 -.75634 .32314 578.335 -49.79)"/><rect x="807" y="823" width="7" height="12" fill="#FFDE7D" rx="0" transform="matrix(-.20668 .96828 -.97738 -.25945 1883.086 202.615)"/><rect x="1824" y="962" width="10" height="28" fill="#FFDE7D" rx="0" transform="matrix(.00002 .99878 -1.00122 .05234 2773.183 -933.785)"/><rect x="279" y="531" width="10" height="13" fill="#FFDE7D" rx="0" transform="matrix(.06958 .99324 -.99202 .21112 814.47 91.867)"/><rect x="540" y="238" width="11" height="25" fill="#00B8A9" rx="0" transform="matrix(-.4238 .83106 -.91743 -.56056 1055.522 -100.57)"/><rect x="614" y="1055" width="13" height="36" fill="#F8F3D4" rx="0" transform="matrix(-.2902 .94913 -.95367 -.32681 1948.941 780.447)"/><rect x="1808" y="311" width="9" height="19" fill="#F8F3D4" rx="0" transform="matrix(.97562 .80547 -.42287 .67587 323.754 -767.107)"/><rect x="268" y="617" width="10" height="11" fill="#FFDE7D" rx="0" transform="matrix(-.91072 .12415 -.63755 -1.01112 1138.006 1271.097)"/><rect x="289" y="396" width="12" height="12" fill="#00B8A9" rx="0" transform="matrix(-.13624 .974 -.99272 -.24285 807.39 186.484)"/><rect x="1532" y="931" width="11" height="27" fill="#F6416C" rx="0" transform="matrix(1.10868 .33869 .26726 .98362 30.616 -64.394)"/><rect x="392" y="896" width="13" height="19" fill="#F8F3D4" rx="0" transform="matrix(.89971 .32562 -.45813 .94566 344.477 -87.512)"/><rect x="48" y="1332" width="13" height="27" fill="#00B8A9" rx="0" transform="matrix(.60135 .74496 -.8009 .67076 885.624 406.197)"/><rect x="1596" y="623" width="11" height="26" fill="#00B8A9" rx="0" transform="matrix(1.1039 .46593 .0203 .91444 109.09 -322.041)"/><rect x="745" y="728" width="7" height="10" fill="#00B8A9" rx="0" transform="matrix(.44271 1.03018 -.90849 .14478 1116.145 70.418)"/><rect x="1763" y="1194" width="11" height="31" fill="#F6416C" rx="0" transform="matrix(1.0054 .4073 -.19706 .9148 458.414 -524.567)"/><rect x="1435" y="487" width="9" height="11" fill="#00B8A9" rx="0" transform="matrix(.50201 .98054 -.91314 .20842 1303.519 -920.969)"/><rect x="962" y="438" width="9" height="13" fill="#F6416C" rx="0" transform="matrix(-.8988 .32736 -.44444 -.95073 2111.907 449.12)"/><rect x="1629" y="1198" width="10" height="22" fill="#FFDE7D" rx="0" transform="matrix(-.39555 .84921 -.9304 -.53065 3541.252 548.574)"/><rect x="1979" y="766" width="13" height="14" fill="#FFDE7D" rx="0" transform="matrix(-.8366 .18065 -.79113 -1.0245 4720.303 1775.595)"/><rect x="1134" y="187" width="10" height="26" fill="#00B8A9" rx="0" transform="matrix(.25766 1.02999 -.96189 .03597 1029.456 -696.363)"/><rect x="1782" y="855" width="10" height="13" fill="#F8F3D4" rx="0" transform="matrix(1.08039 .39169 -.00784 .92275 202.767 -508.434)"/><rect x="1390" y="655" width="10" height="29" fill="#FFDE7D" rx="0" transform="matrix(-.36903 .97106 -.91698 -.29688 2560.774 -732.339)"/><rect x="561" y="214" width="7" height="17" fill="#F6416C" rx="0" transform="matrix(-.01754 1.00061 -.9994 0 784.072 -322.631)"/><rect x="1634" y="852" width="13" height="30" fill="#00B8A9" rx="0" transform="matrix(.47089 .9977 -.93612 .14022 1906.727 -689.876)"/><rect x="1738" y="1305" width="13" height="26" fill="#F6416C" rx="0" transform="matrix(-.07006 .97925 -1.0011 -.2808 3215.094 318.879)"/><rect x="985" y="88" width="9" height="12" fill="#00B8A9" rx="0" transform="matrix(.53456 .99832 -.9455 .10493 611.606 -817.132)"/><rect x="1071" y="633" width="9" height="17" fill="#00B8A9" rx="0" transform="matrix(-.35837 .7171 -1.01021 -.769 2283.706 713.023)"/><rect x="728" y="1114" width="7" height="18" fill="#00B8A9" rx="0" transform="matrix(.32389 1.0023 -1.03747 -.12307 2034.426 630.827)"/><rect x="1338" y="265" width="9" height="14" fill="#F8F3D4" rx="0" transform="matrix(.27027 .99817 -1.02073 -.0698 1354.79 -1002.18)"/><rect x="1989" y="582" width="7" height="17" fill="#F6416C" rx="0" transform="matrix(.97518 .10583 -.17073 1.00692 174.31 -530.536)"/><rect x="1936" y="523" width="11" height="17" fill="#F8F3D4" rx="0" transform="matrix(-.29104 .88222 -.95164 -.55127 2993.349 -331.62)"/><rect x="780" y="441" width="10" height="28" fill="#F6416C" rx="0" transform="matrix(.98753 .34223 -.20881 .94027 180.195 -268.883)"/><rect x="1967" y="1316" width="7" height="11" fill="#F8F3D4" rx="0" transform="matrix(-.54335 .90763 -.83676 -.44268 4165.189 -158.914)"/><rect x="564" y="433" width="12" height="13" fill="#F6416C" rx="0" transform="matrix(.89663 .69476 -.47782 .74504 307.403 -173.164)"/><rect x="332" y="1295" width="11" height="16" fill="#F6416C" rx="0" transform="matrix(.50056 1.00613 -.96768 .05273 1866.277 936.165)"/><rect x="167" y="551" width="8" height="22" fill="#00B8A9" rx="0" transform="matrix(-.14461 .91828 -1.0153 -.46789 819.229 710.562)"/><rect x="307" y="649" width="10" height="11" fill="#FFDE7D" rx="0" transform="matrix(1.09668 .46093 .079 .94505 92.632 -6.47)"/><rect x="1773" y="1011" width="8" height="9" fill="#FFDE7D" rx="0" transform="matrix(1.10972 .769 -.26557 .7171 561.702 -501.825)"/><rect x="1294" y="1386" width="12" height="12" fill="#FFDE7D" rx="0" transform="matrix(-.76507 .47062 -.68599 -.8851 3510.955 2103.166)"/><rect x="1554" y="551" width="7" height="14" fill="#F6416C" rx="0" transform="matrix(.8062 .72875 -.566 .72875 551.484 -595.35)"/><rect x="1325" y="1041" width="11" height="12" fill="#FFDE7D" rx="0" transform="matrix(.98585 .03516 -.2092 1.0069 191.56 -217.368)"/><rect x="1927" y="985" width="10" height="22" fill="#F6416C" rx="0" transform="matrix(-.70843 .65646 -.70837 -.75517 4043.36 547.337)"/><rect x="389" y="124" width="12" height="15" fill="#00B8A9" rx="0" transform="matrix(.88729 .79973 -.5818 .60264 167.56 -242.94)"/><rect x="128" y="59" width="12" height="18" fill="#00B8A9" rx="0" transform="matrix(.8947 .70754 -.51865 .70754 66.158 -70.243)"/><rect x="703" y="933" width="13" height="25" fill="#F8F3D4" rx="0" transform="matrix(.10565 1.00261 -.98255 .1409 1665.832 -11.455)"/><rect x="1950" y="1137" width="9" height="12" fill="#FFDE7D" rx="0" transform="matrix(-.1639 .8917 -1.01904 -.55719 3595.187 672.115)"/><rect x="1314" y="378" width="12" height="20" fill="#F6416C" rx="0" transform="matrix(.87627 .34333 -.50514 .94328 335.477 -546.67)"/><rect x="899" y="695" width="9" height="14" fill="#F8F3D4" rx="0" transform="matrix(.29133 .95864 -.95407 .29309 1256.534 -306.698)"/><rect x="1743" y="199" width="7" height="18" fill="#F8F3D4" rx="0" transform="matrix(.88608 .7257 -.49189 .7257 333.305 -807.182)"/><rect x="1139" y="314" width="9" height="19" fill="#F8F3D4" rx="0" transform="matrix(-.351 .89691 -.8956 -.56045 1733.8 -127.075)"/><rect x="1889" y="1324" width="10" height="13" fill="#FFDE7D" rx="0" transform="matrix(-.69988 .79864 -.72474 -.60182 4020.468 618.6)"/><rect x="964" y="504" width="8" height="22" fill="#F8F3D4" rx="0" transform="matrix(.96982 .12204 -.29568 .9939 124.483 -165.725)"/><rect x="131" y="696" width="13" height="32" fill="#F8F3D4" rx="0" transform="matrix(1.08962 .5358 -.05295 .89171 198.859 42.858)"/><rect x="923" y="616" width="13" height="34" fill="#F8F3D4" rx="0" transform="matrix(.547 .88811 -.82278 .49229 1058.843 -668.015)"/></svg>